<?xml version="1.0" standalone="no"?>
<!DOCTYPE svg PUBLIC "-//W3C//DTD SVG 20010904//EN"
 "http://www.w3.org/TR/2001/REC-SVG-20010904/DTD/svg10.dtd">
<svg version="1.0" xmlns="http://www.w3.org/2000/svg"
 width="5000.000000pt" height="2000.000000pt" viewBox="0 0 5000.000000 2000.000000"
 preserveAspectRatio="xMidYMid meet">

<g transform="translate(0.000000,2000.000000) scale(0.100000,-0.100000)"
fill="none" fill-rule="evenodd" stroke="#FFFFFF" stroke-width="100" class="lines">
<path class="el" d="M0 10000 l0 -10000 25000 0 25000 0 0 10000 0 10000 -25000 0 -25000
0 0 -10000z m40200 2081 c79 -31 145 -83 189 -151 49 -75 64 -132 59 -217 -9
-170 -148 -314 -331 -346 -167 -28 -354 68 -425 220 -23 50 -27 71 -27 153 0
89 2 99 34 158 95 176 312 255 501 183z m2080 0 c79 -31 145 -83 189 -151 49
-75 64 -132 59 -217 -9 -170 -148 -314 -331 -346 -167 -28 -354 68 -425 220
-23 50 -27 71 -27 153 0 89 2 99 34 158 95 176 312 255 501 183z m-38402 -172
c272 -30 521 -117 731 -256 110 -73 262 -221 339 -329 66 -92 157 -263 192
-361 13 -35 26 -63 29 -63 3 0 31 16 60 36 201 136 420 197 701 197 164 0 288
-19 415 -63 38 -13 61 -17 63 -10 13 39 21 40 390 40 196 0 362 -4 369 -8 18
-11 19 -16 274 -894 128 -444 236 -804 240 -800 3 4 115 383 247 842 163 562
247 839 259 848 13 9 104 12 374 12 386 0 395 -1 382 -52 -5 -18 -3 -20 13
-13 163 69 319 98 524 98 230 0 414 -44 596 -142 l74 -40 0 469 c0 413 2 470
16 484 13 14 60 16 354 16 294 0 341 -2 354 -16 14 -14 16 -72 16 -495 0 -263
3 -479 6 -479 3 0 18 8 32 19 51 36 187 99 271 125 135 43 250 59 421 59 250
0 417 -39 618 -143 l112 -59 0 69 c0 49 4 73 16 84 13 14 59 16 347 16 191 0
338 -4 347 -10 12 -7 16 -44 20 -186 l5 -178 39 64 c54 87 156 188 243 239
339 200 835 111 1117 -200 l56 -62 62 60 c154 146 365 249 593 290 136 24 373
21 503 -6 125 -26 239 -67 338 -120 l74 -40 0 59 c0 95 -19 90 360 90 285 0
331 -2 344 -16 13 -13 16 -44 16 -177 l1 -162 36 70 c73 137 218 253 378 301
65 20 250 26 337 11 81 -14 78 0 78 -342 0 -338 -1 -342 -61 -325 -75 22 -263
33 -344 21 -208 -31 -363 -181 -395 -381 -6 -39 -10 -344 -10 -772 0 -629 -2
-708 -16 -722 -13 -14 -60 -16 -354 -16 -376 0 -370 -1 -370 66 l0 34 -57 -29
c-78 -39 -198 -75 -318 -97 -138 -24 -404 -24 -540 0 -242 44 -449 143 -600
287 l-61 58 -90 -87 c-108 -104 -217 -172 -351 -218 -290 -98 -569 -63 -800
102 -55 39 -146 140 -190 210 -9 15 -12 -116 -12 -598 -1 -547 -3 -618 -17
-632 -13 -14 -60 -16 -354 -16 -294 0 -341 2 -354 16 -14 14 -16 76 -16 540
l0 524 -52 -31 c-209 -123 -404 -172 -678 -172 -270 0 -458 47 -667 168 l-63
36 0 -65 c0 -102 23 -96 -370 -96 -376 0 -370 -1 -370 66 l0 34 -57 -29 c-152
-76 -347 -114 -588 -114 -250 -1 -437 38 -617 129 -230 115 -419 317 -518 551
-15 35 -31 63 -36 62 -5 -1 -62 -153 -127 -338 -66 -189 -125 -341 -134 -348
-13 -10 -108 -13 -397 -13 -210 0 -387 4 -394 8 -7 5 -57 135 -111 290 -54
155 -102 290 -106 299 -4 13 -13 1 -34 -48 -125 -297 -419 -506 -806 -575
-138 -24 -404 -24 -540 0 -265 48 -476 156 -644 331 -60 63 -147 175 -156 202
0 1 -39 -35 -86 -80 -201 -193 -463 -327 -756 -386 -178 -36 -290 -41 -938
-41 -563 0 -635 2 -649 16 -14 14 -16 177 -16 1649 0 1472 2 1635 16 1649 14
14 88 16 670 16 397 0 693 -4 752 -11z m15096 -5 c14 -13 16 -65 16 -410 l0
-394 139 0 c114 0 143 -3 155 -16 13 -13 16 -45 16 -192 l0 -176 35 58 c70
117 169 206 300 271 106 52 174 72 308 86 164 18 337 -10 495 -81 l62 -29 0
24 c0 54 4 55 355 55 281 0 326 -2 339 -16 13 -13 16 -45 16 -192 l0 -176 38
63 c98 163 286 291 492 337 99 22 310 23 405 2 200 -45 365 -144 483 -292 l31
-40 53 50 c146 138 361 240 592 281 122 21 370 21 493 -1 75 -13 224 -56 292
-83 9 -4 11 0 7 15 -4 12 -1 26 9 36 15 14 59 16 373 16 196 0 362 -4 369 -8
18 -11 19 -16 274 -894 128 -444 236 -804 240 -800 3 4 115 383 247 842 163
562 247 839 259 848 13 9 104 12 374 12 313 0 360 -2 373 -16 15 -14 26 -13
124 10 248 59 567 54 783 -14 55 -17 57 -17 73 1 14 17 32 19 166 19 l150 0 0
279 c0 241 2 282 16 295 13 14 60 16 354 16 294 0 341 -2 354 -16 14 -13 16
-54 16 -295 l0 -279 219 0 c247 0 251 -1 251 -71 0 -21 2 -39 5 -39 3 0 31 13
63 29 149 75 340 114 562 114 250 0 417 -39 618 -143 l112 -59 0 69 c0 49 4
73 16 84 13 14 59 16 344 16 285 0 331 -2 344 -16 13 -13 16 -44 16 -177 l1
-162 36 70 c73 137 218 253 378 301 65 20 250 26 337 11 81 -14 78 0 78 -342
0 -338 -1 -342 -61 -325 -75 22 -263 33 -344 21 -208 -31 -363 -181 -395 -381
-6 -39 -10 -344 -10 -772 0 -629 -2 -708 -16 -722 -13 -14 -60 -16 -354 -16
-393 0 -370 -6 -370 96 l0 64 -52 -31 c-210 -123 -407 -173 -683 -172 -222 1
-366 29 -547 107 -35 15 -37 15 -43 -3 -7 -23 -53 -42 -160 -67 -65 -15 -119
-19 -285 -19 -194 1 -210 2 -293 28 -89 28 -170 64 -219 99 l-28 19 0 -45 c0
-78 11 -76 -350 -76 -276 0 -321 2 -334 16 -13 12 -16 41 -16 147 l0 132 -27
-35 c-14 -19 -55 -63 -90 -97 -309 -298 -967 -272 -1257 48 -55 61 -113 161
-136 234 -7 22 -15 44 -18 49 -3 5 -43 -99 -89 -230 -46 -131 -91 -245 -100
-251 -25 -19 -776 -19 -795 0 -7 8 -66 167 -132 355 -65 188 -121 342 -125
342 -3 0 -16 -27 -29 -59 -51 -132 -181 -315 -288 -406 -234 -200 -490 -288
-834 -288 -270 0 -458 47 -667 168 l-63 36 0 -65 c0 -102 23 -96 -370 -96
-294 0 -341 2 -354 16 -14 14 -16 99 -16 788 0 827 0 828 -51 928 -32 62 -110
133 -176 159 -49 20 -76 23 -178 23 -103 0 -129 -3 -180 -24 -73 -28 -170
-121 -204 -195 -48 -102 -50 -149 -51 -932 0 -651 -2 -733 -16 -747 -13 -13
-43 -16 -177 -16 -89 0 -169 5 -177 10 -13 8 -16 123 -20 902 -6 884 -6 894
-28 978 -31 118 -99 252 -171 336 -33 39 -67 74 -75 77 -14 6 -16 -104 -16
-1133 0 -1022 -2 -1140 -16 -1154 -23 -24 -335 -24 -358 0 -14 14 -16 99 -16
788 0 827 0 828 -51 928 -32 62 -110 133 -176 159 -49 20 -76 23 -178 23 -103
0 -129 -3 -180 -24 -73 -28 -170 -121 -204 -195 -48 -102 -50 -149 -51 -932 0
-651 -2 -733 -16 -747 -23 -24 -345 -24 -368 0 -14 14 -16 139 -16 1225 l0
1209 -140 0 -140 0 0 -1209 c0 -1086 -2 -1211 -16 -1225 -13 -13 -45 -16 -189
-16 -144 0 -176 3 -189 16 -14 14 -16 177 -16 1649 0 1472 2 1635 16 1649 13
14 60 16 359 16 299 0 346 -2 359 -16z m14838 4 c9 -7 215 -500 459 -1095 244
-596 446 -1080 450 -1075 4 4 206 491 448 1082 242 591 448 1081 458 1088 13
9 117 12 439 12 371 0 424 -2 438 -16 14 -13 16 -65 16 -410 l0 -394 158 0
c86 0 164 -5 172 -10 13 -8 16 -111 20 -792 l5 -783 23 -65 c71 -195 249 -290
461 -246 40 8 94 25 118 37 58 28 144 112 173 169 55 107 53 87 59 908 5 663
8 764 21 772 9 6 157 10 352 10 367 0 368 0 368 -57 0 -29 -8 -30 120 17 218
80 571 99 838 44 66 -13 193 -53 255 -79 14 -6 17 -2 17 18 0 57 1 57 370 57
294 0 341 -2 354 -16 12 -11 16 -35 16 -85 0 -38 3 -69 6 -69 3 0 18 8 32 19
45 31 183 97 252 119 303 99 681 88 951 -28 41 -17 80 -34 87 -37 8 -3 12 6
12 30 0 68 -7 67 370 67 382 0 370 3 370 -75 l0 -44 83 39 c176 81 339 113
577 113 234 0 413 -35 588 -114 l62 -28 0 39 c0 71 -7 70 355 70 281 0 326 -2
339 -16 13 -13 16 -45 16 -192 l0 -176 35 58 c70 117 169 206 300 271 106 52
174 72 308 86 291 32 587 -80 758 -285 64 -77 152 -255 181 -366 22 -84 22
-91 25 -971 3 -804 2 -888 -12 -903 -14 -14 -57 -16 -355 -16 -294 0 -341 2
-354 16 -14 14 -16 99 -16 788 0 827 0 828 -51 928 -32 62 -110 133 -176 159
-49 20 -76 23 -178 23 -103 0 -129 -3 -180 -24 -73 -28 -170 -121 -204 -195
-48 -102 -50 -149 -51 -932 0 -651 -2 -733 -16 -747 -13 -13 -43 -16 -172 -16
-86 0 -164 5 -172 10 -13 8 -16 126 -20 932 l-5 923 -28 82 c-34 102 -108 214
-189 288 -34 30 -65 55 -70 55 -4 0 -8 -508 -8 -1129 0 -1014 -2 -1131 -16
-1145 -23 -23 -285 -23 -308 0 -13 12 -16 41 -16 147 l0 132 -27 -35 c-93
-124 -246 -226 -403 -269 -160 -45 -386 -47 -544 -6 -45 12 -131 15 -411 15
-389 0 -385 -1 -385 61 0 16 -2 29 -5 29 -3 0 -28 -11 -55 -25 -71 -36 -188
-72 -288 -89 -336 -58 -672 -4 -927 147 l-60 35 -5 -69 c-3 -47 -10 -73 -20
-79 -9 -6 -157 -10 -352 -10 -293 0 -339 2 -352 16 -9 8 -16 23 -16 33 0 16
-12 14 -112 -20 -171 -57 -280 -73 -503 -72 -223 1 -365 22 -518 77 -88 31
-97 33 -97 16 0 -10 -7 -26 -16 -34 -13 -14 -59 -16 -344 -16 -285 0 -331 2
-344 16 -13 13 -16 45 -16 192 l0 177 -34 -52 c-114 -172 -256 -276 -461 -335
-68 -19 -104 -23 -240 -23 -184 0 -260 16 -397 85 l-78 39 0 -34 c0 -66 5 -65
-363 -65 -192 0 -338 4 -347 10 -13 8 -16 137 -20 1031 l-5 1022 -279 -699
c-421 -1052 -533 -1326 -548 -1335 -19 -12 -455 -11 -478 1 -13 7 -145 328
-422 1022 l-403 1011 -5 -1022 c-4 -894 -7 -1023 -20 -1031 -9 -6 -155 -10
-347 -10 -288 0 -334 2 -347 16 -14 14 -16 177 -16 1649 0 1472 2 1635 16
1649 14 14 67 16 438 16 323 0 426 -3 438 -12z m-16159 -2575 c89 -42 165
-116 208 -200 32 -63 34 -73 34 -167 0 -93 -3 -106 -32 -169 -42 -89 -121
-168 -210 -210 -62 -29 -77 -32 -163 -32 -89 0 -100 2 -170 36 -92 45 -160
111 -203 199 -30 60 -32 72 -32 170 0 94 3 111 27 163 37 79 77 127 142 172
84 58 145 76 246 73 71 -3 96 -8 153 -35z m14370 0 c89 -42 165 -116 208 -200
32 -63 34 -73 34 -167 0 -93 -3 -106 -32 -169 -42 -89 -121 -168 -210 -210
-62 -29 -77 -32 -163 -32 -89 0 -100 2 -170 36 -92 45 -160 111 -203 199 -30
60 -32 72 -32 170 0 94 3 111 27 163 37 79 77 127 142 172 84 58 145 76 246
73 71 -3 96 -8 153 -35z m14740 0 c89 -42 165 -116 208 -200 32 -63 34 -73 34
-167 0 -93 -3 -106 -32 -169 -42 -89 -121 -168 -210 -210 -62 -29 -77 -32
-163 -32 -89 0 -100 2 -170 36 -92 45 -160 111 -203 199 -30 60 -32 72 -32
170 0 94 3 111 27 163 37 79 77 127 142 172 84 58 145 76 246 73 71 -3 96 -8
153 -35z"/>
<path class="el" d="M39951 12034 c-97 -26 -197 -118 -221 -202 -15 -55 -12 -152 6 -206
21 -62 97 -139 171 -174 49 -23 71 -27 148 -27 76 0 99 4 147 27 66 31 135 96
163 153 23 49 32 161 16 218 -47 165 -243 261 -430 211z"/>
<path class="el" d="M42031 12034 c-97 -26 -197 -118 -221 -202 -15 -55 -12 -152 6 -206
21 -62 97 -139 171 -174 49 -23 71 -27 148 -27 76 0 99 4 147 27 66 31 135 96
163 153 23 49 32 161 16 218 -47 165 -243 261 -430 211z"/>
<path class="el" d="M2500 10254 l0 -1605 688 4 c646 4 694 5 797 25 240 46 417 114 580
223 102 69 229 178 264 228 l20 28 -33 80 c-142 335 -150 795 -22 1136 59 158
167 327 274 431 l50 49 -30 86 c-68 196 -184 376 -337 524 -230 222 -511 347
-873 386 -59 7 -351 11 -738 11 l-640 0 0 -1606z m1267 1065 c218 -24 399
-104 529 -233 89 -89 140 -170 190 -306 108 -286 104 -788 -7 -1070 -91 -229
-242 -378 -467 -460 -142 -52 -227 -62 -553 -67 -268 -5 -297 -4 -312 12 -16
15 -17 95 -17 1060 0 935 2 1045 16 1059 13 14 52 16 270 16 140 0 298 -5 351
-11z"/>
<path class="el" d="M3190 10254 l0 -1016 283 5 c199 3 308 9 369 21 287 53 480 203 577
448 113 283 114 796 2 1083 -83 216 -246 363 -473 429 -122 35 -243 46 -518
46 l-240 0 0 -1016z"/>
<path class="el" d="M10210 11385 l0 -475 86 -82 c81 -78 171 -198 210 -280 20 -43 30
-47 39 -17 15 47 129 199 204 274 l81 80 0 487 0 488 -310 0 -310 0 0 -475z"/>
<path class="el" d="M5780 11069 c-188 -17 -379 -83 -519 -179 -34 -23 -65 -48 -67 -55
-3 -7 3 -55 14 -107 32 -146 44 -270 46 -440 l1 -158 61 0 61 0 12 59 c19 97
75 197 155 276 83 82 145 118 252 145 140 36 268 21 398 -48 151 -79 245 -222
271 -413 11 -84 43 -79 -531 -79 l-504 0 0 -185 0 -185 728 0 729 0 -179 513
c-99 281 -199 568 -222 637 l-43 124 -76 28 c-165 60 -393 86 -587 67z"/>
<path class="el" d="M9331 11069 c-151 -14 -386 -82 -420 -123 -6 -7 -71 -186 -146 -398
-74 -211 -137 -392 -141 -401 -6 -15 8 -17 149 -17 l154 0 12 59 c19 97 75
197 155 276 83 82 145 118 252 145 140 36 268 21 398 -48 151 -79 245 -222
271 -413 11 -84 43 -79 -531 -79 l-504 0 0 -185 0 -185 585 0 585 0 0 590 0
590 -61 40 c-116 75 -301 132 -486 150 -111 11 -140 11 -272 -1z"/>
<path class="el" d="M11478 11070 c-209 -20 -385 -78 -535 -177 l-53 -36 0 -1017 0 -1018
53 -35 c189 -125 396 -180 677 -180 280 0 481 52 668 173 l62 40 0 1020 0
1020 -52 34 c-126 80 -267 134 -421 160 -109 19 -292 26 -399 16z m226 -460
c255 -41 421 -278 457 -651 29 -296 -52 -597 -199 -746 -151 -153 -366 -186
-563 -88 -223 112 -352 448 -319 827 13 150 40 253 97 368 108 221 302 327
527 290z"/>
<path class="el" d="M11520 10547 c-84 -20 -129 -45 -196 -112 -140 -139 -211 -413 -184
-708 21 -219 71 -355 173 -463 89 -96 179 -134 315 -134 217 0 376 146 442
404 72 281 36 630 -85 821 -45 72 -135 150 -200 174 -70 26 -193 34 -265 18z"/>
<path class="el" d="M13652 11069 c-214 -29 -377 -139 -499 -339 -63 -103 -84 -118 -117
-84 -13 13 -16 46 -16 205 l0 189 -305 0 -305 0 0 -76 0 -76 78 -77 c214 -211
334 -486 364 -833 27 -319 -40 -641 -183 -879 -59 -100 -146 -206 -210 -260
l-49 -41 0 -534 0 -534 310 0 310 0 0 639 c0 568 2 641 16 655 30 31 49 20 88
-49 108 -189 281 -315 480 -350 295 -51 575 31 784 229 101 96 100 95 52 158
-48 63 -131 228 -161 318 -147 447 -77 999 168 1332 l44 59 -31 39 c-112 142
-303 257 -490 295 -91 19 -242 25 -328 14z m130 -526 c104 -52 166 -115 227
-232 103 -199 130 -508 65 -766 -8 -33 -36 -103 -61 -155 -81 -169 -207 -266
-377 -291 -221 -33 -417 77 -521 293 -75 156 -88 221 -89 448 -1 172 2 206 22
285 58 230 177 379 351 442 58 21 81 23 182 21 113 -3 117 -4 201 -45z"/>
<path class="el" d="M13423 10516 c-68 -22 -127 -61 -181 -121 -62 -68 -104 -153 -134
-271 -20 -78 -23 -113 -22 -284 1 -220 14 -291 79 -428 41 -87 135 -186 207
-220 74 -34 173 -47 262 -33 102 15 159 43 232 116 131 129 194 353 181 635
-14 294 -114 498 -285 582 -62 31 -74 33 -182 35 -76 2 -129 -2 -157 -11z"/>
<path class="el" d="M15290 11069 c-253 -23 -481 -123 -652 -287 l-67 -65 20 -28 c11 -16
45 -80 75 -144 50 -102 92 -241 120 -392 4 -20 10 -23 53 -23 l48 0 12 59 c19
97 75 197 155 276 83 82 145 118 252 145 140 36 268 21 398 -48 151 -79 245
-222 271 -413 11 -84 43 -79 -531 -79 l-504 0 0 -185 0 -185 585 0 585 0 0
590 0 590 -61 40 c-116 75 -301 132 -486 150 -111 11 -140 11 -273 -1z"/>
<path class="el" d="M17308 11070 c-123 -22 -228 -79 -308 -166 -57 -61 -82 -102 -120
-195 -38 -91 -60 -108 -94 -73 -13 13 -16 46 -16 210 l0 194 -300 0 -300 0 0
-65 0 -65 86 -82 c178 -171 293 -403 340 -683 8 -49 17 -174 21 -276 8 -248
29 -229 -242 -229 l-205 0 0 -129 0 -128 58 -6 c31 -4 111 -9 177 -12 135 -7
181 -18 190 -44 6 -19 -23 -112 -60 -197 -60 -136 -180 -279 -303 -363 -56
-38 -62 -45 -62 -76 l0 -35 310 0 309 0 3 733 3 732 23 65 c54 149 140 246
277 311 111 53 202 66 358 50 65 -7 125 -15 133 -18 12 -4 14 37 14 265 0 149
-4 273 -9 276 -16 10 -236 15 -283 6z"/>
<path class="el" d="M6480 11030 c0 -5 12 -17 28 -26 237 -145 368 -285 471 -505 83 -177
118 -351 128 -630 6 -181 5 -187 -15 -207 -17 -17 -34 -22 -72 -22 -27 0 -50
-2 -50 -4 0 -2 25 -73 55 -157 31 -85 57 -158 58 -164 1 -5 54 -157 117 -338
l114 -327 365 2 365 3 128 365 c70 201 127 376 127 390 0 14 -6 54 -14 90 -28
129 -39 322 -26 472 37 426 210 747 517 962 48 33 91 71 95 84 l8 22 -329 0
-328 0 -11 -32 c-6 -18 -119 -406 -251 -863 -160 -554 -246 -834 -257 -842
-22 -17 -38 -16 -55 0 -7 8 -125 401 -262 875 l-249 862 -329 0 c-207 0 -328
-4 -328 -10z"/>
<path class="el" d="M6521 10923 c0 -4 96 -280 212 -613 l212 -605 54 -3 54 -3 -6 178
c-7 197 -24 314 -62 446 -50 173 -129 312 -249 436 -78 80 -217 187 -215 164z"/>
<path class="el" d="M8770 10863 c-111 -84 -235 -229 -303 -353 -117 -212 -173 -523 -148
-813 6 -75 15 -146 19 -157 10 -28 185 459 184 510 -1 22 8 48 23 70 19 29
275 738 275 763 0 13 -14 7 -50 -20z"/>
<path class="el" d="M10210 10268 l0 -568 88 0 87 0 1 158 c2 185 19 299 71 465 33 104
35 122 25 150 -27 71 -112 196 -189 276 l-82 86 -1 -567z"/>
<path class="el" d="M16170 10267 l0 -567 197 0 196 0 -6 178 c-7 196 -24 313 -62 445
-50 174 -141 330 -259 447 l-66 64 0 -567z"/>
<path class="el" d="M10759 10733 c-71 -73 -130 -157 -173 -241 l-27 -53 25 -77 c51 -161
76 -349 76 -568 0 -145 -2 -147 -117 -154 l-89 -5 12 -75 c7 -41 20 -103 29
-137 16 -58 19 -63 45 -63 41 0 88 -20 95 -39 3 -10 -4 -44 -15 -77 -11 -32
-20 -66 -20 -74 0 -26 95 -161 162 -230 l63 -65 3 482 c1 266 1 699 0 964 l-3
481 -66 -69z"/>
<path class="el" d="M12410 9840 c0 -578 4 -960 9 -960 16 0 119 121 177 208 261 387 270
1065 21 1472 -47 78 -159 215 -188 231 -19 9 -19 -11 -19 -951z"/>
<path class="el" d="M5074 10728 c-176 -188 -274 -427 -305 -743 -17 -180 2 -411 47 -575
20 -76 67 -200 75 -200 7 0 70 96 112 170 24 43 87 190 102 238 6 21 4 22 -44
22 -38 0 -56 5 -71 20 -19 19 -20 33 -20 225 0 253 -4 245 129 245 l89 0 7 47
c17 115 -35 603 -64 603 -5 0 -30 -24 -57 -52z"/>
<path class="el" d="M14498 10624 c-123 -168 -195 -385 -219 -652 -30 -342 52 -702 208
-916 l36 -50 20 25 c76 94 162 343 185 537 l8 72 -108 0 c-155 0 -148 -12
-148 245 0 257 -7 245 144 245 l105 0 -6 38 c-17 109 -66 272 -111 365 -73
151 -71 149 -114 91z"/>
<path class="el" d="M5791 10550 c-41 -11 -95 -34 -121 -50 -59 -38 -137 -120 -173 -180
-23 -41 -57 -144 -57 -177 0 -10 95 -13 484 -13 l483 0 -8 51 c-28 175 -144
316 -303 365 -83 26 -218 28 -305 4z"/>
<path class="el" d="M9341 10550 c-41 -11 -95 -34 -121 -50 -59 -38 -137 -120 -173 -180
-23 -41 -57 -144 -57 -177 0 -10 95 -13 484 -13 l483 0 -8 51 c-28 175 -144
316 -303 365 -83 26 -218 28 -305 4z"/>
<path class="el" d="M15301 10550 c-41 -11 -95 -34 -121 -50 -59 -38 -137 -120 -173 -180
-23 -41 -57 -144 -57 -177 0 -10 95 -13 484 -13 l483 0 -8 51 c-28 175 -144
316 -303 365 -83 26 -218 28 -305 4z"/>
<path class="el" d="M10501 10274 c-42 -141 -72 -423 -57 -528 l7 -46 76 0 76 0 -6 178
c-4 97 -11 206 -17 242 -14 90 -41 203 -51 214 -4 5 -17 -22 -28 -60z"/>
<path class="el" d="M5030 9885 l0 -185 49 0 49 0 17 71 c14 65 44 255 45 287 0 8 -23 12
-80 12 l-80 0 0 -185z"/>
<path class="el" d="M5250 10058 c-1 -32 -31 -224 -45 -283 -8 -37 -15 -68 -15 -71 0 -2
41 -4 90 -4 l90 0 0 185 0 185 -60 0 c-41 0 -60 -4 -60 -12z"/>
<path class="el" d="M8589 10048 c-11 -18 -13 -61 -11 -185 l3 -163 170 0 169 0 0 185 0
185 -159 0 c-154 0 -159 -1 -172 -22z"/>
<path class="el" d="M14540 9885 l0 -185 99 0 98 0 4 78 c3 42 2 124 -1 182 l-5 105 -97
3 -98 3 0 -186z"/>
<path class="el" d="M14795 10060 c3 -5 6 -88 7 -185 l0 -175 39 0 39 0 0 185 0 185 -46
0 c-26 0 -43 -4 -39 -10z"/>
<path class="el" d="M8442 9622 c-82 -234 -81 -222 -30 -352 48 -120 116 -226 210 -326
228 -238 488 -338 883 -337 241 0 436 38 588 114 l57 29 0 284 0 284 -22 6
c-13 3 -46 6 -73 6 l-51 0 -42 -64 c-138 -211 -469 -278 -732 -150 -169 83
-299 292 -300 482 l0 42 -183 0 c-142 0 -188 3 -203 14 -15 12 -20 30 -24 96
l-5 83 -73 -211z"/>
<path class="el" d="M5150 9578 c-37 -103 -115 -259 -174 -348 l-56 -84 32 -54 c47 -79
195 -230 283 -291 196 -136 414 -195 720 -194 308 0 527 59 729 196 156 106
303 310 332 461 l6 32 -269 17 c-147 10 -275 17 -283 17 -9 0 -35 -29 -58 -64
-138 -211 -469 -278 -732 -150 -169 83 -299 292 -300 482 l0 42 -104 0 -103 0
-23 -62z"/>
<path class="el" d="M5440 9598 c0 -61 26 -160 58 -226 35 -73 132 -171 202 -205 152 -74
387 -73 524 1 65 35 137 108 164 166 15 31 30 48 47 52 14 3 145 -1 291 -11
146 -9 268 -15 271 -11 3 3 -16 66 -42 141 l-47 135 -734 0 -734 0 0 -42z"/>
<path class="el" d="M8990 9598 c0 -61 26 -160 58 -226 35 -73 132 -171 202 -205 152 -74
387 -73 524 1 65 35 137 108 164 166 26 54 44 61 143 54 l69 -5 0 128 0 129
-580 0 -580 0 0 -42z"/>
<path class="el" d="M10210 9511 l0 -129 78 -6 c42 -4 97 -8 120 -10 41 -3 43 -2 37 18
-3 11 -16 68 -27 126 -12 58 -22 111 -24 118 -2 8 -30 12 -94 12 l-90 0 0
-129z"/>
<path class="el" d="M14797 9633 c-4 -3 -7 -22 -7 -41 0 -51 -38 -227 -67 -312 -24 -71
-102 -233 -140 -292 l-18 -28 55 -55 c198 -201 475 -299 845 -298 241 0 436
38 588 114 l57 29 0 284 0 284 -22 6 c-13 3 -46 6 -73 6 l-51 0 -42 -64 c-138
-211 -469 -278 -732 -150 -169 83 -299 292 -300 482 l0 42 -43 0 c-24 0 -47
-3 -50 -7z"/>
<path class="el" d="M14950 9598 c0 -61 26 -160 58 -226 35 -73 132 -171 202 -205 152
-74 387 -73 524 1 65 35 137 108 164 166 26 54 44 61 143 54 l69 -5 0 128 0
129 -580 0 -580 0 0 -42z"/>
<path class="el" d="M10210 9055 l0 -266 31 18 c54 31 176 157 224 232 69 107 71 117 38
195 l-28 65 -50 5 c-27 3 -87 8 -132 11 l-83 6 0 -266z"/>
<path class="el" d="M16170 9056 l0 -267 31 18 c53 31 175 157 222 229 47 72 92 174 103
229 l6 32 -124 7 c-67 4 -149 9 -180 13 l-58 6 0 -267z"/>
<path class="el" d="M10540 9291 c0 -20 13 -41 21 -35 15 9 10 44 -6 44 -8 0 -15 -4 -15
-9z"/>
<path class="el" d="M10515 9014 c-56 -89 -156 -194 -242 -252 -57 -39 -63 -46 -63 -77
l0 -35 310 0 310 0 0 71 0 71 -84 83 c-46 46 -103 113 -127 149 -24 37 -46 66
-50 66 -4 0 -28 -34 -54 -76z"/>
<path class="el" d="M18300 10255 l0 -1605 145 0 145 0 0 1209 c0 1086 2 1211 16 1225 13
13 43 16 170 16 l154 0 0 380 0 380 -315 0 -315 0 0 -1605z"/>
<path class="el" d="M27970 11365 l0 -265 310 0 310 0 0 265 0 265 -310 0 -310 0 0 -265z"/>
<path class="el" d="M19919 11070 c-257 -30 -454 -161 -566 -375 -47 -90 -64 -102 -97
-69 -14 13 -16 47 -16 215 l0 199 -125 0 -125 0 0 -1195 0 -1195 140 0 140 0
0 718 c1 788 3 817 59 935 80 167 243 267 436 267 183 0 331 -84 405 -229 61
-122 60 -102 60 -933 l0 -758 135 0 135 0 0 1154 0 1153 -62 31 c-154 75 -335
103 -519 82z"/>
<path class="el" d="M21829 11070 c-257 -30 -454 -161 -566 -375 -47 -90 -64 -102 -97
-69 -14 13 -16 47 -16 215 l0 199 -295 0 -295 0 0 -32 c0 -27 8 -39 41 -63
108 -79 235 -289 281 -465 22 -84 22 -91 25 -957 l4 -873 134 0 135 0 0 718
c1 788 3 817 59 935 80 167 243 267 436 267 183 0 331 -84 405 -229 61 -122
60 -102 60 -933 l0 -758 310 0 310 0 0 71 0 71 -84 83 c-293 291 -420 757
-340 1245 32 193 116 397 227 551 l55 77 -49 59 c-87 107 -190 177 -324 222
-136 45 -270 58 -416 41z"/>
<path class="el" d="M23408 11070 c-275 -26 -515 -129 -671 -288 l-47 -48 40 -86 c22 -47
50 -123 62 -169 22 -83 22 -94 25 -871 l4 -787 52 -34 c119 -79 258 -132 422
-163 123 -23 387 -24 512 -1 314 58 555 214 722 468 50 76 141 273 141 306 0
5 -121 355 -269 778 -305 875 -260 784 -418 835 -168 54 -391 77 -575 60z
m226 -460 c255 -41 421 -278 457 -651 29 -296 -52 -597 -199 -746 -151 -153
-366 -186 -563 -88 -223 112 -352 448 -319 827 13 150 40 253 97 368 108 221
302 327 527 290z"/>
<path class="el" d="M23450 10547 c-84 -20 -129 -45 -196 -112 -140 -139 -211 -413 -184
-708 21 -219 71 -355 173 -463 89 -96 179 -134 315 -134 217 0 376 146 442
404 72 281 36 630 -85 821 -45 72 -135 150 -200 174 -70 26 -193 34 -265 18z"/>
<path class="el" d="M26942 11070 c-116 -12 -306 -56 -331 -78 -17 -16 -226 -600 -218
-609 4 -4 187 -22 228 -23 21 0 30 9 49 50 31 65 113 143 191 180 201 95 478
47 574 -99 57 -85 72 -218 35 -292 -46 -89 -145 -117 -570 -164 -324 -36 -497
-85 -652 -184 -65 -41 -45 3 -191 -411 -60 -172 -80 -242 -75 -260 4 -14 14
-56 24 -94 55 -222 232 -385 488 -451 218 -55 503 -32 676 55 80 41 168 116
223 192 81 112 93 121 121 92 13 -13 16 -43 16 -170 l0 -154 290 0 290 0 0 56
c0 51 -3 60 -40 102 -23 25 -59 82 -81 126 -72 148 -72 139 -76 909 l-5 687
-146 0 c-81 0 -154 5 -162 10 -12 8 -16 49 -20 237 l-5 227 -55 17 c-143 44
-403 65 -578 49z m543 -1307 c15 -15 17 -37 13 -187 -5 -193 -16 -236 -90
-346 -128 -193 -443 -274 -663 -171 -113 52 -165 128 -173 252 -4 67 -1 83 23
138 42 92 117 151 250 195 28 9 142 31 255 50 113 19 237 45 275 59 88 30 90
31 110 10z"/>
<path class="el" d="M27365 9688 c-33 -10 -152 -35 -265 -54 -279 -46 -351 -72 -418 -148
-42 -48 -55 -96 -50 -183 4 -57 10 -81 30 -109 58 -81 148 -117 293 -118 107
-1 179 15 259 58 114 59 193 164 216 285 12 62 14 291 3 290 -5 -1 -35 -10
-68 -21z"/>
<path class="el" d="M29650 11074 c-174 -15 -325 -52 -452 -111 l-78 -36 0 -179 c0 -234
16 -218 -213 -218 l-173 0 -48 -100 c-26 -55 -45 -104 -42 -108 3 -5 6 -231 6
-503 l1 -494 27 -62 c23 -53 33 -65 67 -79 45 -18 164 -21 233 -6 67 16 72 6
121 -230 l44 -206 66 -30 c165 -76 317 -105 541 -105 278 -1 482 52 668 173
l62 40 0 1020 0 1020 -52 34 c-126 80 -267 134 -421 160 -88 15 -283 26 -357
20z m184 -464 c255 -41 421 -278 457 -651 29 -296 -52 -597 -199 -746 -151
-153 -366 -186 -563 -88 -223 112 -352 448 -319 827 13 150 40 253 97 368 108
221 302 327 527 290z"/>
<path class="el" d="M29650 10547 c-84 -20 -129 -45 -196 -112 -140 -139 -211 -413 -184
-708 21 -219 71 -355 173 -463 89 -96 179 -134 315 -134 217 0 376 146 442
404 72 281 36 630 -85 821 -45 72 -135 150 -200 174 -70 26 -193 34 -265 18z"/>
<path class="el" d="M31678 11070 c-123 -22 -228 -79 -308 -166 -57 -61 -82 -102 -120
-195 -38 -91 -60 -108 -94 -73 -13 13 -16 46 -16 210 l0 194 -300 0 -300 0 0
-76 0 -76 78 -77 c214 -211 334 -486 364 -833 27 -319 -40 -641 -183 -879 -59
-100 -146 -206 -210 -260 l-49 -41 0 -74 0 -74 310 0 309 0 3 733 3 732 23 65
c54 149 140 246 277 311 111 53 202 66 358 50 65 -7 125 -15 133 -18 12 -4 14
37 14 265 0 149 -4 273 -9 276 -16 10 -236 15 -283 6z"/>
<path class="el" d="M24165 11018 c4 -13 14 -27 22 -33 8 -5 49 -32 90 -59 352 -232 549
-709 505 -1223 -7 -76 -21 -174 -32 -218 l-19 -80 131 -378 132 -377 365 2
364 3 99 280 98 279 4 131 c2 99 8 147 25 200 28 86 84 184 146 253 42 46 53
71 125 278 44 125 80 233 80 240 0 8 -32 14 -107 19 -124 8 -179 19 -186 39
-9 22 56 198 104 282 79 139 208 258 373 346 l71 37 -327 1 -326 0 -11 -32
c-6 -18 -119 -406 -251 -863 -160 -554 -246 -834 -257 -842 -22 -17 -38 -16
-55 0 -7 8 -125 401 -262 875 l-249 862 -329 0 -329 0 6 -22z"/>
<path class="el" d="M27734 10996 c46 -24 102 -57 124 -75 22 -17 43 -31 46 -31 3 0 6 34
6 75 l0 75 -130 0 -131 0 85 -44z"/>
<path class="el" d="M27970 10935 l0 -105 46 -62 c25 -35 59 -89 75 -120 l29 -58 235 0
235 0 0 225 0 225 -310 0 -310 0 0 -105z"/>
<path class="el" d="M28650 10815 l0 -225 28 0 c24 0 36 11 75 68 54 80 169 196 250 253
55 39 57 42 57 85 l0 44 -205 0 -205 0 0 -225z"/>
<path class="el" d="M27640 10785 l0 -195 135 0 135 0 0 110 0 110 -57 45 c-61 48 -140
97 -185 114 l-28 11 0 -195z"/>
<path class="el" d="M26424 10901 c-103 -68 -203 -169 -258 -259 -32 -53 -96 -206 -96
-231 0 -12 250 -28 259 -16 14 19 193 544 189 555 -2 7 -41 -13 -94 -49z"/>
<path class="el" d="M24210 10897 c0 -4 464 -1335 476 -1367 11 -29 24 30 36 171 31 369
-59 725 -244 960 -79 102 -268 267 -268 236z"/>
<path class="el" d="M29024 10858 c-77 -57 -244 -237 -244 -262 0 -3 63 -6 140 -6 l140 0
0 145 c0 80 -2 145 -4 145 -2 0 -16 -10 -32 -22z"/>
<path class="el" d="M30540 9840 c0 -578 4 -960 9 -960 16 0 119 121 177 208 261 387 270
1065 21 1472 -47 78 -159 215 -188 231 -19 9 -19 -11 -19 -951z"/>
<path class="el" d="M27970 10663 l0 -73 46 0 45 0 -26 48 c-14 26 -34 58 -45 72 l-20 25
0 -72z"/>
<path class="el" d="M22593 10618 c-150 -218 -216 -455 -216 -778 -1 -305 61 -541 195
-752 42 -65 152 -194 173 -202 14 -5 15 72 12 752 -3 741 -3 759 -25 839 -20
76 -75 213 -85 213 -3 0 -27 -33 -54 -72z"/>
<path class="el" d="M26962 10565 c-35 -8 -83 -25 -106 -39 -59 -35 -130 -113 -151 -169
-13 -33 -25 -49 -41 -53 -13 -3 -85 -1 -160 6 -75 6 -137 10 -138 8 -6 -7
-143 -403 -140 -406 1 -2 37 14 80 36 146 73 320 116 594 147 358 39 472 64
510 112 23 30 27 116 8 191 -15 61 -85 132 -153 156 -69 24 -223 30 -303 11z"/>
<path class="el" d="M27973 9843 c3 -593 6 -698 20 -758 17 -72 62 -171 97 -215 l20 -25
-3 805 c-2 616 -6 814 -15 843 -13 37 -13 37 -68 37 l-56 0 5 -687z"/>
<path class="el" d="M28144 10513 c23 -72 26 -188 26 -929 l0 -804 43 -31 c62 -45 105
-66 204 -95 76 -23 111 -27 258 -31 167 -5 276 6 387 37 52 15 41 40 -44 97
-129 87 -249 219 -324 358 -21 39 -41 72 -45 75 -14 10 -40 72 -44 103 -2 18
-15 64 -28 102 -82 230 -83 636 -3 890 17 56 21 88 18 158 l-3 87 -225 0
c-210 0 -225 -1 -220 -17z"/>
<path class="el" d="M28650 10508 c0 -19 2 -20 10 -8 13 19 13 30 0 30 -5 0 -10 -10 -10
-22z"/>
<path class="el" d="M28575 9928 c-4 -68 -2 -163 3 -213 9 -82 9 -72 11 123 0 116 -1 212
-3 212 -2 0 -7 -55 -11 -122z"/>
<path class="el" d="M26051 9645 c-22 -39 -56 -147 -65 -210 -3 -22 17 23 44 99 28 77 48
141 46 143 -2 2 -13 -12 -25 -32z"/>
<path class="el" d="M28958 9115 c-4 -4 -50 -7 -103 -7 l-96 0 17 -26 c31 -50 88 -117
148 -176 72 -69 146 -123 145 -104 0 7 -15 81 -33 163 -27 129 -35 150 -52
153 -11 2 -23 0 -26 -3z"/>
<path class="el" d="M32980 10255 l0 -1605 305 0 305 0 0 1054 c0 945 2 1056 16 1070 20
20 30 20 52 -2 9 -9 204 -486 432 -1060 l415 -1042 214 2 214 3 418 1044 c231
575 425 1048 432 1053 19 12 34 10 51 -8 14 -14 16 -124 16 -1065 l0 -1049
305 0 305 0 0 40 c0 35 -7 46 -63 102 -112 113 -198 277 -240 463 -20 86 -21
124 -24 951 -4 784 -3 863 12 878 14 13 41 16 166 16 l149 0 0 380 0 380 -402
0 -403 0 -445 -1087 c-245 -597 -451 -1092 -458 -1100 -19 -18 -49 -16 -68 5
-9 9 -216 503 -459 1097 l-442 1080 -401 3 -402 2 0 -1605z"/>
<path class="el" d="M38909 11070 c-162 -16 -284 -45 -427 -101 l-32 -13 2 -601 3 -600
96 -32 c53 -18 219 -57 370 -88 308 -62 362 -76 434 -112 221 -111 192 -359
-54 -453 -148 -56 -359 -47 -495 22 -67 34 -142 113 -171 181 l-27 62 -79 -3
-79 -4 2 -306 3 -306 95 -33 c151 -54 294 -75 515 -76 222 -1 331 15 500 71
l110 37 3 621 2 621 -73 22 c-40 12 -163 40 -273 62 -422 84 -506 110 -581
173 -45 38 -73 102 -73 164 0 96 46 164 144 214 86 44 147 58 251 58 193 0
334 -75 407 -215 31 -62 35 -65 69 -65 20 0 57 3 83 6 l46 7 0 287 0 288 -64
25 c-76 31 -194 61 -291 76 -102 15 -317 21 -416 11z"/>
<path class="el" d="M41008 11070 c-210 -20 -385 -78 -535 -177 l-53 -36 0 -1018 0 -1018
43 -30 c236 -162 603 -226 947 -166 107 19 182 42 273 83 l77 35 0 373 0 374
-64 0 -63 0 -23 -71 c-60 -185 -199 -305 -386 -332 -270 -39 -505 145 -584
458 -45 178 -45 437 1 605 84 313 309 485 587 450 182 -23 318 -143 382 -336
l22 -64 64 0 64 0 0 369 0 368 -67 30 c-193 87 -452 125 -685 103z"/>
<path class="el" d="M43008 11070 c-164 -16 -298 -51 -425 -111 l-83 -40 0 -274 0 -275
38 0 c20 0 66 -3 102 -6 l65 -6 25 51 c30 66 113 144 191 181 201 95 478 47
574 -99 57 -85 72 -218 35 -292 -46 -89 -144 -117 -570 -164 -165 -19 -271
-37 -382 -67 l-78 -20 0 -648 0 -648 33 -11 c17 -5 59 -14 92 -20 231 -37 454
-10 620 77 80 42 196 151 239 225 24 41 51 67 70 67 2 0 12 -7 20 -16 13 -13
16 -43 16 -170 l0 -154 110 0 110 0 0 1141 0 1140 -62 28 c-201 91 -494 135
-740 111z m537 -1307 c15 -15 17 -37 13 -187 -5 -193 -16 -236 -90 -346 -128
-193 -443 -274 -663 -171 -113 52 -165 128 -173 252 -4 67 -1 83 23 138 42 92
117 151 250 195 28 9 142 31 255 50 113 19 237 45 275 59 88 30 90 31 110 10z"/>
<path class="el" d="M43425 9688 c-33 -10 -152 -35 -265 -54 -279 -46 -351 -72 -418 -148
-42 -48 -55 -96 -50 -183 4 -57 10 -81 30 -109 58 -81 148 -117 293 -118 107
-1 179 15 259 58 114 59 193 164 216 285 12 62 14 291 3 290 -5 -1 -35 -10
-68 -21z"/>
<path class="el" d="M45139 11070 c-257 -30 -454 -161 -566 -375 -47 -90 -64 -102 -97
-69 -14 13 -16 47 -16 215 l0 199 -295 0 -295 0 0 -42 c0 -41 4 -45 56 -83
106 -75 198 -195 251 -325 53 -132 53 -128 53 -1067 l0 -873 130 0 130 0 0
718 c1 788 3 817 59 935 80 167 243 267 436 267 183 0 331 -84 405 -229 61
-122 60 -102 60 -933 l0 -758 310 0 311 0 -4 873 c-3 867 -3 873 -25 957 -46
175 -148 337 -269 432 -86 66 -119 84 -218 117 -136 45 -270 58 -416 41z"/>
<path class="el" d="M36193 10193 c3 -813 4 -852 24 -938 37 -165 104 -299 201 -405 l41
-45 1 1118 0 1117 -136 0 -135 0 4 -847z"/>
<path class="el" d="M36520 9901 l0 -1140 28 -19 c49 -35 130 -71 209 -94 67 -20 101 -23
238 -23 173 0 255 16 371 71 126 60 254 189 320 324 28 57 48 80 69 80 2 0 11
-7 19 -16 14 -13 16 -48 16 -225 l0 -209 300 0 c288 0 300 1 300 19 0 12 -17
29 -45 45 -204 120 -351 323 -399 554 -11 52 -11 65 -1 76 15 15 84 22 298 32
l147 7 0 171 0 171 -62 35 c-88 49 -205 169 -250 255 -51 98 -68 164 -75 285
-15 276 112 521 342 656 37 21 45 31 45 55 l0 29 -310 0 -309 0 -4 -742 c-3
-816 -1 -777 -67 -907 -87 -173 -300 -281 -497 -252 -180 27 -296 124 -361
302 l-27 74 -3 763 -3 762 -144 0 -145 0 0 -1139z"/>
<path class="el" d="M39740 11012 c0 -23 9 -35 50 -61 114 -74 222 -197 276 -315 14 -31
27 -56 29 -56 2 0 28 35 58 78 30 42 89 111 131 152 l76 74 0 78 0 78 -310 0
-310 0 0 -28z"/>
<path class="el" d="M41820 11001 c0 -35 4 -41 58 -79 72 -50 200 -184 237 -246 15 -25
30 -46 34 -46 3 0 21 25 40 56 40 67 135 171 202 220 47 34 49 38 49 85 l0 49
-310 0 -310 0 0 -39z"/>
<path class="el" d="M38315 10867 c-183 -140 -265 -324 -252 -567 7 -128 33 -217 88 -299
45 -67 136 -154 198 -189 l41 -23 0 565 c0 311 -1 566 -3 566 -1 0 -34 -24
-72 -53z"/>
<path class="el" d="M39740 10651 l0 -270 68 5 c37 2 99 7 137 10 l70 6 22 49 22 50 -25
67 c-43 116 -125 223 -236 309 l-58 44 0 -270z"/>
<path class="el" d="M41820 10546 l0 -346 195 0 195 0 0 24 c0 13 -3 44 -6 70 -6 41 -9
46 -33 46 -40 0 -98 19 -104 34 -3 7 8 53 24 101 l29 87 -37 61 c-41 68 -184
222 -232 250 l-31 18 0 -345z"/>
<path class="el" d="M42349 10790 c-50 -50 -103 -114 -127 -155 l-42 -71 33 -84 33 -85
94 -8 c51 -4 94 -6 97 -4 2 2 2 114 1 248 l-3 244 -86 -85z"/>
<path class="el" d="M40289 10733 c-37 -37 -90 -104 -118 -148 -44 -67 -51 -85 -46 -110
23 -105 13 -135 -45 -135 -27 0 -31 -5 -44 -52 -31 -106 -45 -185 -56 -299
l-11 -117 60 -59 c62 -63 125 -174 152 -268 22 -78 17 -284 -9 -363 l-20 -63
38 -57 c21 -31 67 -86 102 -122 l63 -65 3 482 c1 266 1 699 0 964 l-3 481 -66
-69z"/>
<path class="el" d="M38930 10576 c-130 -36 -190 -98 -190 -196 0 -61 18 -100 62 -134 62
-46 111 -60 488 -136 140 -29 282 -60 315 -71 33 -10 63 -19 68 -19 4 0 7 68
7 150 l0 150 -79 -6 c-112 -9 -124 -5 -151 60 -41 102 -122 172 -232 202 -64
17 -226 17 -288 0z"/>
<path class="el" d="M43022 10565 c-112 -25 -210 -103 -253 -200 -12 -27 -27 -54 -33 -58
-6 -4 -62 -5 -123 -1 l-113 6 0 -151 c0 -87 4 -151 9 -151 5 0 22 5 36 10 51
19 271 59 415 75 356 39 472 64 510 112 23 30 27 116 8 191 -15 61 -85 132
-153 156 -69 24 -223 30 -303 11z"/>
<path class="el" d="M41076 10539 c-177 -26 -315 -169 -375 -389 -63 -229 -40 -564 51
-750 38 -78 142 -186 208 -217 108 -50 252 -54 367 -12 42 16 74 39 118 83 66
67 98 123 120 218 8 34 20 65 27 69 7 5 48 9 91 9 l77 0 0 295 0 295 -77 0
c-43 0 -84 4 -91 8 -6 5 -19 35 -27 68 -62 241 -240 359 -489 323z"/>
<path class="el" d="M42141 10447 c-16 -41 -14 -47 15 -47 22 0 24 3 18 23 -14 48 -22 54
-33 24z"/>
<path class="el" d="M39890 10333 c-36 -1 -84 -5 -107 -9 l-43 -5 0 -162 0 -163 85 -42
c98 -48 89 -55 100 79 5 67 41 243 60 292 5 13 2 17 -11 15 -11 -1 -48 -3 -84
-5z"/>
<path class="el" d="M42266 10263 c3 -38 7 -73 9 -80 2 -7 -3 -19 -11 -28 -13 -12 -51
-15 -230 -15 l-214 0 0 -295 0 -295 95 0 c82 0 96 2 101 18 16 50 72 148 113
199 58 72 122 121 228 176 l83 42 0 166 0 166 -52 7 c-29 3 -70 6 -91 6 l-38
0 7 -67z"/>
<path class="el" d="M39740 9340 l0 -590 53 32 c72 44 227 201 266 271 l33 58 -40 82
c-77 158 -122 341 -137 555 -7 85 -9 94 -34 111 -27 19 -126 71 -136 71 -3 0
-5 -265 -5 -590z"/>
<path class="el" d="M42375 9892 c-80 -44 -138 -87 -179 -132 -45 -50 -99 -134 -114 -177
l-11 -33 89 0 c115 0 119 -4 108 -101 -13 -125 -45 -228 -107 -354 l-60 -119
24 -42 c54 -93 188 -209 288 -252 l27 -12 0 625 c0 344 -3 625 -7 625 -5 0
-30 -13 -58 -28z"/>
<path class="el" d="M39976 9730 c14 -180 64 -391 117 -495 20 -40 20 -40 30 -15 16 39
14 267 -2 325 -21 75 -64 154 -110 205 l-40 45 5 -65z"/>
<path class="el" d="M38450 9542 l0 -154 93 3 c50 2 97 0 104 -4 6 -4 19 -33 28 -65 14
-47 28 -68 80 -119 54 -53 73 -65 136 -84 94 -29 273 -32 360 -6 184 55 254
206 146 313 -59 58 -114 75 -455 145 -163 33 -341 75 -394 93 l-98 32 0 -154z"/>
<path class="el" d="M41820 9140 c0 -214 4 -350 9 -350 15 0 189 169 196 190 3 10 -4 52
-17 92 -20 64 -23 93 -23 246 l0 172 -82 0 -83 0 0 -350z"/>
<path class="el" d="M42044 9423 c-13 -128 9 -363 35 -363 14 0 80 153 101 235 11 44 23
106 27 138 l6 57 -81 0 -80 0 -8 -67z"/>
<path class="el" d="M38123 9310 c-62 -3 -115 -9 -118 -12 -11 -11 24 -129 59 -203 59
-125 150 -225 294 -324 l32 -22 0 285 0 286 -77 -2 c-43 -1 -128 -4 -190 -8z"/>
<path class="el" d="M40082 8988 c-65 -101 -176 -204 -289 -269 -35 -20 -53 -37 -53 -50
0 -18 11 -19 310 -19 l310 0 0 74 0 74 -54 47 c-30 25 -83 82 -117 126 -34 43
-63 79 -64 79 -1 0 -20 -28 -43 -62z"/>
<path class="el" d="M41990 8855 c-36 -36 -89 -82 -117 -102 -46 -32 -53 -41 -53 -70 l0
-33 260 0 c143 0 260 2 260 4 0 2 -20 16 -44 30 -63 37 -147 116 -191 181 -21
30 -41 55 -44 55 -4 0 -36 -29 -71 -65z"/>
<path class="el" d="M17373 9296 c-52 -17 -132 -74 -168 -122 -63 -83 -83 -218 -50 -332
21 -69 114 -170 187 -203 75 -34 221 -34 291 -2 71 33 160 128 187 200 30 80
25 205 -10 277 -34 66 -126 149 -195 175 -65 24 -176 27 -242 7z"/>
<path class="el" d="M31743 9296 c-52 -17 -132 -74 -168 -122 -63 -83 -83 -218 -50 -332
21 -69 114 -170 187 -203 75 -34 221 -34 291 -2 71 33 160 128 187 200 30 80
25 205 -10 277 -34 66 -126 149 -195 175 -65 24 -176 27 -242 7z"/>
<path class="el" d="M46483 9296 c-52 -17 -132 -74 -168 -122 -63 -83 -83 -218 -50 -332
21 -69 114 -170 187 -203 75 -34 221 -34 291 -2 71 33 160 128 187 200 30 80
25 205 -10 277 -34 66 -126 149 -195 175 -65 24 -176 27 -242 7z"/>
</g>
</svg>
